<svg xmlns="http://www.w3.org/2000/svg" viewBox="0 0 50 50"><path d="M 14.8125 6 C 14.335938 6.089844 13.992188 6.511719 14 7 L 14 43 C 14 43.550781 14.449219 44 15 44 L 35 44 C 35.550781 44 36 43.550781 36 43 L 36 7 C 36 6.449219 35.550781 6 35 6 L 15 6 C 14.96875 6 14.9375 6 14.90625 6 C 14.875 6 14.84375 6 14.8125 6 Z M 16 8 L 34 8 L 34 36 L 16 36 Z M 25 13 C 24.449219 13 24 13.449219 24 14 L 24 30 C 24 30.550781 24.449219 31 25 31 C 25.550781 31 26 30.550781 26 30 L 26 14 C 26 13.449219 25.550781 13 25 13 Z M 16 38 L 34 38 L 34 42 L 26 42 L 26 41 C 26 40.449219 25.550781 40 25 40 C 24.449219 40 24 40.449219 24 41 L 24 42 L 16 42 Z"></path></svg>
