<svg xmlns="http://www.w3.org/2000/svg" viewBox="0 0 50 50"><path d="M 14.8125 2 C 14.335938 2.089844 13.992188 2.511719 14 3 L 14 47 C 14 47.550781 14.449219 48 15 48 L 35 48 C 35.550781 48 36 47.550781 36 47 L 36 3 C 36 2.449219 35.550781 2 35 2 L 15 2 C 14.96875 2 14.9375 2 14.90625 2 C 14.875 2 14.84375 2 14.8125 2 Z M 16 4 L 34 4 L 34 40 L 16 40 Z M 25 9 C 24.449219 9 24 9.449219 24 10 L 24 34 C 24 34.550781 24.449219 35 25 35 C 25.550781 35 26 34.550781 26 34 L 26 10 C 26 9.449219 25.550781 9 25 9 Z M 16 42 L 34 42 L 34 46 L 16 46 Z"></path></svg>
