<?xml version="1.0" encoding="UTF-8"?>
<!-- Generator: Adobe Illustrator 22.1.0, SVG Export Plug-In . SVG Version: 6.00 Build 0)  -->
<svg version="1.1" id="Calque_1" xmlns="http://www.w3.org/2000/svg" xmlns:xlink="http://www.w3.org/1999/xlink" x="0px" y="0px" viewBox="0 0 1200 1200" style="enable-background:new 0 0 1200 1200;" xml:space="preserve">
<style type="text/css">
	.st0{fill:none;stroke:#000000;stroke-miterlimit:10;}
</style>
<g id="XMLID_40_">
	<g id="XMLID_68_">
		<path class="st0" d="M953.5,274.4h-707v711.3h706.9L953.5,274.4L953.5,274.4z"/>
	</g>
	<path id="XMLID_65_" class="st0" d="M599.4,966.5c-202.5,0-266.7-6.7-302.8-13.3c-6.6-1.2-11.1-3.2-14.2-6.3   c-2.5-2.5-4.8-7.7-6.1-14c-5-23.5-13.4-94.1-13.4-303.1s8.4-279.6,13.4-303.1c1.3-6.2,3.6-11.5,6.1-14c3.1-3.1,7.6-5.1,14.2-6.3   c36.1-6.6,100.3-13.3,302.8-13.3s266.7,6.7,302.8,13.3c6.6,1.2,11.1,3.2,14.2,6.3c2.5,2.5,4.8,7.7,6.1,14   c5,23.5,13.4,94.1,13.4,303.1s-8.4,279.6-13.4,303.1c-1.3,6.2-3.6,11.5-6.1,14c-3.1,3.1-7.6,5.1-14.2,6.3   C866.2,959.8,802,966.5,599.4,966.5"/>
	<g id="XMLID_52_">
		<path class="st0" d="M599.4,425.6c-39.7,0-67.3,1.2-73.2,1.5c-2.2,0.1-4.7,1.7-5.6,2.6c-0.3,0.3-2.5,2.7-2.6,5.6    c-0.5,11.1-3.3,88.7-3.3,194.6s2.9,183.5,3.3,194.6c0.1,2.9,2.3,5.3,2.6,5.6c0.9,0.9,3.4,2.5,5.6,2.6c5.9,0.3,33.5,1.5,73.2,1.5    s67.3-1.2,73.2-1.5c2.2-0.1,4.7-1.7,5.6-2.6c0.3-0.3,2.5-2.7,2.6-5.6c0.5-11.1,3.3-88.7,3.3-194.6c0-105.9-2.8-183.5-3.3-194.6    c-0.1-2.8-2.3-5.3-2.6-5.6c-0.9-0.9-3.4-2.5-5.6-2.6C666.8,426.7,639.1,425.6,599.4,425.6L599.4,425.6z"/>
	</g>
</g>
</svg>
