<?xml version="1.0" standalone="no"?>
<!DOCTYPE svg PUBLIC "-//W3C//DTD SVG 20010904//EN"
 "http://www.w3.org/TR/2001/REC-SVG-20010904/DTD/svg10.dtd">
<svg version="1.0" xmlns="http://www.w3.org/2000/svg"
 width="512.000000pt" height="512.000000pt" viewBox="0 0 512.000000 512.000000"
 preserveAspectRatio="xMidYMid meet">

<g transform="translate(0.000000,512.000000) scale(0.100000,-0.100000)"
fill="#000000" stroke="none">
<path d="M260 4903 c-56 -28 -59 -50 -59 -396 -1 -240 2 -315 13 -340 7 -18
169 -210 359 -427 l346 -395 1 -1530 c0 -1497 0 -1531 20 -1562 13 -21 31 -35
57 -42 53 -15 3073 -15 3126 0 26 7 44 21 57 42 20 31 20 65 20 1562 l1 1530
354 405 c346 395 354 406 360 455 4 28 5 183 3 345 -3 312 -4 319 -52 351 -18
12 -367 14 -2296 17 -2151 2 -2277 1 -2310 -15z m4450 -398 l0 -205 -2150 0
-2150 0 0 205 0 205 2150 0 2150 0 0 -205z m-130 -412 c0 -5 -119 -144 -265
-310 l-265 -303 -1490 0 -1490 0 -265 303 c-146 166 -265 305 -265 310 0 4
909 7 2020 7 1111 0 2020 -3 2020 -7z m-590 -1943 l0 -1130 -1430 0 -1430 0 0
1130 0 1130 1430 0 1430 0 0 -1130z m0 -1535 l0 -205 -1430 0 -1430 0 0 205 0
205 1430 0 1430 0 0 -205z"/>
</g>
</svg>
