<svg xmlns="http://www.w3.org/2000/svg" viewBox="0 0 50 50"><path d="M 9.8125 2 C 9.335938 2.089844 8.992188 2.511719 9 3 L 9 20 C 9 20.550781 9.449219 21 10 21 L 13 21 L 13 27 L 10 27 C 9.96875 27 9.9375 27 9.90625 27 C 9.875 27 9.84375 27 9.8125 27 C 9.335938 27.089844 8.992188 27.511719 9 28 L 9 47 C 9 47.550781 9.449219 48 10 48 L 40 48 C 40.550781 48 41 47.550781 41 47 L 41 28 C 41 27.449219 40.550781 27 40 27 L 37 27 L 37 21 L 40 21 C 40.550781 21 41 20.550781 41 20 L 41 3 C 41 2.449219 40.550781 2 40 2 L 10 2 C 9.96875 2 9.9375 2 9.90625 2 C 9.875 2 9.84375 2 9.8125 2 Z M 11 4 L 39 4 L 39 19 L 11 19 Z M 15 21 L 21 21 L 21 27 L 15 27 Z M 23 21 L 27 21 L 27 27 L 23 27 Z M 29 21 L 35 21 L 35 27 L 29 27 Z M 11 29 L 39 29 L 39 40 L 11 40 Z M 11 42 L 39 42 L 39 46 L 11 46 Z"></path></svg>
