<?xml version="1.0" encoding="utf-8"?>
<!-- Generator: Adobe Illustrator 24.1.0, SVG Export Plug-In . SVG Version: 6.00 Build 0)  -->
<svg version="1.1" id="Layer_1" xmlns="http://www.w3.org/2000/svg" xmlns:xlink="http://www.w3.org/1999/xlink" x="0px" y="0px"
	 viewBox="0 0 640 480" style="enable-background:new 0 0 640 480;" xml:space="preserve">
<style type="text/css">
	.st0{fill:url(#SVGID_1_);}
	.st1{fill:url(#SVGID_2_);}
	.st2{fill:#E4E7F6;}
</style>
<linearGradient id="SVGID_1_" gradientUnits="userSpaceOnUse" x1="0" y1="240" x2="640" y2="240" gradientTransform="matrix(1 0 0 -1 0 480)">
	<stop  offset="0" style="stop-color:#E5EAF6"/>
	<stop  offset="0.74" style="stop-color:#EEF3FB"/>
	<stop  offset="1" style="stop-color:#F3F7FD"/>
</linearGradient>
<path class="st0" d="M0,248C66,76,243,80,331,78c113-3,172.9-32.8,195-78h114v480H0V248z"/>
<linearGradient id="SVGID_2_" gradientUnits="userSpaceOnUse" x1="0" y1="233" x2="640" y2="233" gradientTransform="matrix(1 0 0 -1 0 480)">
	<stop  offset="0" style="stop-color:#F6F8FA"/>
	<stop  offset="0.67" style="stop-color:#EDF0F7"/>
	<stop  offset="1" style="stop-color:#E6EAF5"/>
</linearGradient>
<path class="st1" d="M0,318c108-41,177-132.8,272-130c103,3,120-44,213-88c136-64.4,155-86,155-86v466H0V318z"/>
<path class="st2" d="M0,375c108-41,224.9-88.6,320-88c154,1,320-68,320-68v261H0V375z"/>
</svg>
