<svg id="Floor_1" data-name="Floor 1" xmlns="http://www.w3.org/2000/svg" viewBox="0 0 1593.5 920.87"><defs><style>.cls-1{fill:none;stroke:#000;stroke-miterlimit:10;}</style></defs><line class="cls-1" x1="0.45" y1="576.92" x2="263.25" y2="732.43"/><line class="cls-1" x1="449.25" y1="743.43" x2="348.25" y2="684.43"/><line class="cls-1" x1="371.79" y1="791.66" x2="448.71" y2="742.21"/><line class="cls-1" x1="593.25" y1="920.43" x2="372.25" y2="791.43"/><line class="cls-1" x1="0.25" y1="577.43" x2="1000.25" y2="0.43"/><line class="cls-1" x1="1593.25" y1="343.43" x2="1000.25" y2="0.43"/><line class="cls-1" x1="593.25" y1="920.43" x2="1593.25" y2="343.43"/><line class="cls-1" x1="893.39" y1="368.98" x2="263.11" y2="732.88"/><line class="cls-1" x1="631.25" y1="213.43" x2="893.25" y2="369.43"/><line class="cls-1" x1="769.25" y1="556.43" x2="664.25" y2="622.43"/><line class="cls-1" x1="726.25" y1="657.43" x2="663.25" y2="622.43"/><line class="cls-1" x1="996.23" y1="688.94" x2="768.25" y2="556.43"/><line class="cls-1" x1="1139.25" y1="604.43" x2="1038.25" y2="545.43"/><line class="cls-1" x1="1218.25" y1="440.43" x2="1038.25" y2="545.43"/><line class="cls-1" x1="1320.25" y1="499.43" x2="1218.25" y2="440.43"/><line class="cls-1" x1="726.25" y1="657.43" x2="759.25" y2="638.43"/><line class="cls-1" x1="759.25" y1="638.43" x2="920.25" y2="731.43"/></svg>