<?xml version="1.0" standalone="no"?>
<!DOCTYPE svg PUBLIC "-//W3C//DTD SVG 20010904//EN"
 "http://www.w3.org/TR/2001/REC-SVG-20010904/DTD/svg10.dtd">
<svg version="1.0" xmlns="http://www.w3.org/2000/svg"
 width="390.000000pt" height="390.000000pt" viewBox="0 0 390.000000 390.000000"
 preserveAspectRatio="xMidYMid meet">
<metadata>
Created by potrace 1.11, written by Peter Selinger 2001-2013
</metadata>
<g transform="translate(0.000000,390.000000) scale(0.100000,-0.100000)"
fill="#000000" stroke="none">
<path d="M1648 3603 l-198 -197 0 59 c0 33 -5 77 -11 98 -17 62 -41 67 -299
67 -246 0 -269 -5 -289 -61 -7 -21 -11 -157 -11 -403 l0 -371 -213 -213 -212
-212 0 -1106 0 -1106 28 -24 28 -24 1489 0 1489 0 28 24 28 24 0 1105 c0 966
-2 1106 -15 1122 -16 20 -1516 1355 -1564 1393 -56 43 -64 38 -278 -175z
m1682 -2378 l0 -945 -730 0 -730 0 0 660 0 661 -25 24 -24 25 -415 0 c-228 0
-422 -3 -431 -6 -44 -17 -45 -25 -45 -714 l0 -650 -170 0 -170 0 0 945 0 945
1370 0 1370 0 0 -945z"/>
<path d="M2245 1625 l-25 -24 0 -330 c0 -181 3 -337 6 -346 16 -42 45 -45 428
-45 l365 0 28 24 28 24 0 337 0 337 -28 24 -28 24 -375 0 -375 0 -24 -25z
m655 -360 l0 -215 -255 0 -255 0 0 215 0 215 255 0 255 0 0 -215z"/>
</g>
</svg>
